<svg xmlns="http://www.w3.org/2000/svg" xmlns:xlink="http://www.w3.org/1999/xlink" width="672" height="480" viewBox="0 0 504 360"><defs><style>*{stroke-linejoin:round;stroke-linecap:butt}</style></defs><g id="figure_1"><path id="patch_1" d="M0 360h504V0H0z" style="fill:#fff"/><g id="axes_1"><path id="patch_2" d="M44.66 332.12H493.2V25.44H44.66z" style="fill:#fff"/><path id="patch_3" d="M65.048 332.12h52.858V40.044H65.048z" clip-path="url(#p9edba5812f)" style="fill:#1f77b4"/><path id="patch_4" d="M216.072 332.12h52.858V174.94h-52.858z" clip-path="url(#p9edba5812f)" style="fill:#1f77b4"/><path id="patch_5" d="M367.095 332.12h52.859V186.781h-52.859z" clip-path="url(#p9edba5812f)" style="fill:#1f77b4"/><path id="patch_6" d="M117.906 332.12h52.859V228.55h-52.859z" clip-path="url(#p9edba5812f)" style="fill:#ff7f0e"/><path id="patch_7" d="M268.93 332.12h52.858v-82.936H268.93z" clip-path="url(#p9edba5812f)" style="fill:#ff7f0e"/><path id="patch_8" d="M419.954 332.12h52.858v-81.837h-52.858z" clip-path="url(#p9edba5812f)" style="fill:#ff7f0e"/><g id="matplotlib.axis_1"><g id="xtick_1"><g id="line2d_1"><defs><path id="m334300a1be" d="M0 0v3.5" style="stroke:#000;stroke-width:.8"/></defs><use xlink:href="#m334300a1be" x="117.906" y="332.12" style="stroke:#000;stroke-width:.8"/></g><g id="text_1" transform="matrix(.1 0 0 -.1 75.805 346.718)"><defs><path id="DejaVuSans-4e" d="M628 4666h850L3547 763v3903h612V0h-850L1241 3903V0H628z" transform="scale(.01563)"/><path id="DejaVuSans-6f" d="M1959 3097q-462 0-731-361t-269-989 267-989q268-361 733-361 460 0 728 362 269 363 269 988 0 622-269 986-268 364-728 364m0 487q750 0 1178-488 429-487 429-1349 0-859-429-1349Q2709-91 1959-91q-753 0-1180 489-426 490-426 1349 0 862 426 1349 427 488 1180 488" transform="scale(.01563)"/><path id="DejaVuSans-70" d="M1159 525v-1856H581v4831h578v-531q182 312 458 463 277 152 661 152 638 0 1036-506 399-506 399-1331T3314 415Q2916-91 2278-91q-384 0-661 152-276 152-458 464m1957 1222q0 634-261 995t-717 361q-457 0-718-361t-261-995 261-995 718-361q456 0 717 361t261 995" transform="scale(.01563)"/><path id="DejaVuSans-74" d="M1172 4494v-994h1184v-447H1172V1153q0-428 117-550t477-122h590V0h-590q-666 0-919 248-253 249-253 905v1900H172v447h422v994z" transform="scale(.01563)"/><path id="DejaVuSans-69" d="M603 3500h575V0H603zm0 1363h575v-729H603z" transform="scale(.01563)"/><path id="DejaVuSans-6d" d="M3328 2828q216 388 516 572t706 184q547 0 844-383 297-382 297-1088V0h-578v2094q0 503-179 746-178 244-543 244-447 0-707-297-259-296-259-809V0h-578v2094q0 506-178 748t-550 242q-441 0-701-298-259-298-259-808V0H581v3500h578v-544q197 322 472 475t653 153q382 0 649-194 267-193 395-562" transform="scale(.01563)"/><path id="DejaVuSans-7a" d="M353 3500h2731v-525L922 459h2162V0H275v525l2163 2516H353z" transform="scale(.01563)"/><path id="DejaVuSans-61" d="M2194 1759q-697 0-966-159t-269-544q0-306 202-486 202-179 548-179 479 0 768 339t289 901v128zm1147 238V0h-575v531q-197-318-491-470T1556-91q-537 0-855 302-317 302-317 808 0 590 395 890 396 300 1180 300h807v57q0 397-261 614t-733 217q-300 0-585-72-284-72-546-216v532q315 122 612 182 297 61 578 61 760 0 1135-394 375-393 375-1193" transform="scale(.01563)"/><path id="DejaVuSans-6e" d="M3513 2113V0h-575v2094q0 497-194 743-194 247-581 247-466 0-735-297-269-296-269-809V0H581v3500h578v-544q207 316 486 472 280 156 646 156 603 0 912-373 310-373 310-1098" transform="scale(.01563)"/><path id="DejaVuSans-73" d="M2834 3397v-544q-243 125-506 187-262 63-544 63-428 0-642-131t-214-394q0-200 153-314t616-217l197-44q612-131 870-370t258-667q0-488-386-773Q2250-91 1575-91q-281 0-586 55T347 128v594q319-166 628-249 309-82 613-82 406 0 624 139 219 139 219 392 0 234-158 359-157 125-692 241l-200 47q-534 112-772 345-237 233-237 639 0 494 350 762 350 269 994 269 318 0 599-47 282-46 519-140" transform="scale(.01563)"/></defs><use xlink:href="#DejaVuSans-4e"/><use xlink:href="#DejaVuSans-6f" transform="translate(74.805)"/><use xlink:href="#DejaVuSans-6f" transform="translate(167.773)"/><use xlink:href="#DejaVuSans-70" transform="translate(228.955)"/><use xlink:href="#DejaVuSans-74" transform="translate(292.432)"/><use xlink:href="#DejaVuSans-69" transform="translate(331.64)"/><use xlink:href="#DejaVuSans-6d" transform="translate(359.424)"/><use xlink:href="#DejaVuSans-69" transform="translate(456.836)"/><use xlink:href="#DejaVuSans-7a" transform="translate(484.62)"/><use xlink:href="#DejaVuSans-61" transform="translate(537.11)"/><use xlink:href="#DejaVuSans-74" transform="translate(598.389)"/><use xlink:href="#DejaVuSans-69" transform="translate(637.598)"/><use xlink:href="#DejaVuSans-6f" transform="translate(665.38)"/><use xlink:href="#DejaVuSans-6e" transform="translate(726.563)"/><use xlink:href="#DejaVuSans-73" transform="translate(789.941)"/></g></g><g id="xtick_2"><use xlink:href="#m334300a1be" id="line2d_2" x="268.93" y="332.12" style="stroke:#000;stroke-width:.8"/><g id="text_2" transform="matrix(.1 0 0 -.1 262.39 346.718)"><defs><path id="DejaVuSans-4f" d="M2522 4238q-688 0-1093-513-404-512-404-1397 0-881 404-1394 405-512 1093-512 687 0 1089 512 402 513 402 1394 0 885-402 1397-402 513-1089 513m0 512q981 0 1568-658 588-658 588-1764 0-1103-588-1761Q3503-91 2522-91q-984 0-1574 656-589 657-589 1763t589 1764q590 658 1574 658" transform="scale(.01563)"/></defs><use xlink:href="#DejaVuSans-4f"/><use xlink:href="#DejaVuSans-73" transform="translate(78.71)"/></g></g><g id="xtick_3"><use xlink:href="#m334300a1be" id="line2d_3" x="419.954" y="332.12" style="stroke:#000;stroke-width:.8"/><g id="text_3" transform="matrix(.1 0 0 -.1 412.836 346.718)"><defs><path id="DejaVuSans-32" d="M1228 531h2203V0H469v531q359 372 979 998 621 627 780 809 303 340 423 576 121 236 121 464 0 372-261 606-261 235-680 235-297 0-627-103-329-103-704-313v638q381 153 712 231 332 78 607 78 725 0 1156-363 431-362 431-968 0-288-108-546-107-257-392-607-78-91-497-524-418-433-1181-1211" transform="scale(.01563)"/></defs><use xlink:href="#DejaVuSans-4f"/><use xlink:href="#DejaVuSans-32" transform="translate(78.71)"/></g></g></g><g id="matplotlib.axis_2"><g id="ytick_1"><g id="line2d_4"><defs><path id="m7a4d221f7f" d="M0 0h-3.5" style="stroke:#000;stroke-width:.8"/></defs><use xlink:href="#m7a4d221f7f" x="44.66" y="332.12" style="stroke:#000;stroke-width:.8"/></g><g id="text_4" transform="matrix(.1 0 0 -.1 31.297 335.92)"><defs><path id="DejaVuSans-30" d="M2034 4250q-487 0-733-480-245-479-245-1442 0-959 245-1439 246-480 733-480 491 0 736 480 246 480 246 1439 0 963-246 1442-245 480-736 480m0 500q785 0 1199-621 414-620 414-1801 0-1178-414-1799Q2819-91 2034-91q-784 0-1198 620-414 621-414 1799 0 1181 414 1801 414 621 1198 621" transform="scale(.01563)"/></defs><use xlink:href="#DejaVuSans-30"/></g></g><g id="ytick_2"><use xlink:href="#m7a4d221f7f" id="line2d_5" x="44.66" y="282.158" style="stroke:#000;stroke-width:.8"/><g id="text_5" transform="matrix(.1 0 0 -.1 24.935 285.958)"><defs><path id="DejaVuSans-31" d="M794 531h1031v3560L703 3866v575l1116 225h631V531h1031V0H794z" transform="scale(.01563)"/></defs><use xlink:href="#DejaVuSans-31"/><use xlink:href="#DejaVuSans-30" transform="translate(63.623)"/></g></g><g id="ytick_3"><use xlink:href="#m7a4d221f7f" id="line2d_6" x="44.66" y="232.197" style="stroke:#000;stroke-width:.8"/><g id="text_6" transform="matrix(.1 0 0 -.1 24.935 235.996)"><use xlink:href="#DejaVuSans-32"/><use xlink:href="#DejaVuSans-30" transform="translate(63.623)"/></g></g><g id="ytick_4"><use xlink:href="#m7a4d221f7f" id="line2d_7" x="44.66" y="182.235" style="stroke:#000;stroke-width:.8"/><g id="text_7" transform="matrix(.1 0 0 -.1 24.935 186.034)"><defs><path id="DejaVuSans-33" d="M2597 2516q453-97 707-404 255-306 255-756 0-690-475-1069Q2609-91 1734-91q-293 0-604 58T488 141v609q262-153 574-231 313-78 654-78 593 0 904 234t311 681q0 413-289 645-289 233-804 233h-544v519h569q465 0 712 186t247 536q0 359-255 551-254 193-729 193-260 0-557-57-297-56-653-174v562q360 100 674 150t592 50q719 0 1137-327 419-326 419-882 0-388-222-655t-631-370" transform="scale(.01563)"/></defs><use xlink:href="#DejaVuSans-33"/><use xlink:href="#DejaVuSans-30" transform="translate(63.623)"/></g></g><g id="ytick_5"><use xlink:href="#m7a4d221f7f" id="line2d_8" x="44.66" y="132.273" style="stroke:#000;stroke-width:.8"/><g id="text_8" transform="matrix(.1 0 0 -.1 24.935 136.072)"><defs><path id="DejaVuSans-34" d="M2419 4116 825 1625h1594zm-166 550h794V1625h666v-525h-666V0h-628v1100H313v609z" transform="scale(.01563)"/></defs><use xlink:href="#DejaVuSans-34"/><use xlink:href="#DejaVuSans-30" transform="translate(63.623)"/></g></g><g id="ytick_6"><use xlink:href="#m7a4d221f7f" id="line2d_9" x="44.66" y="82.311" style="stroke:#000;stroke-width:.8"/><g id="text_9" transform="matrix(.1 0 0 -.1 24.935 86.11)"><defs><path id="DejaVuSans-35" d="M691 4666h2478v-532H1269V2991q137 47 274 70 138 23 276 23 781 0 1237-428 457-428 457-1159 0-753-469-1171Q2575-91 1722-91q-294 0-599 50Q819 9 494 109v635q281-153 581-228t634-75q541 0 856 284 316 284 316 772 0 487-316 771-315 285-856 285-253 0-505-56-251-56-513-175z" transform="scale(.01563)"/></defs><use xlink:href="#DejaVuSans-35"/><use xlink:href="#DejaVuSans-30" transform="translate(63.623)"/></g></g><g id="ytick_7"><use xlink:href="#m7a4d221f7f" id="line2d_10" x="44.66" y="32.35" style="stroke:#000;stroke-width:.8"/><g id="text_10" transform="matrix(.1 0 0 -.1 24.935 36.149)"><defs><path id="DejaVuSans-36" d="M2113 2584q-425 0-674-291-248-290-248-796 0-503 248-796 249-292 674-292t673 292q248 293 248 796 0 506-248 796-248 291-673 291m1253 1979v-575q-238 112-480 171-242 60-480 60-625 0-955-422-329-422-376-1275 184 272 462 417 279 145 613 145 703 0 1111-427 408-426 408-1160 0-719-425-1154Q2819-91 2113-91q-810 0-1238 620-428 621-428 1799 0 1106 525 1764t1409 658q238 0 480-47t505-140" transform="scale(.01563)"/></defs><use xlink:href="#DejaVuSans-36"/><use xlink:href="#DejaVuSans-30" transform="translate(63.623)"/></g></g><g id="text_11" transform="matrix(0 -.1 -.1 0 18.855 227.476)"><defs><path id="DejaVuSans-45" d="M628 4666h2950v-532H1259V2753h2222v-531H1259V531h2375V0H628z" transform="scale(.01563)"/><path id="DejaVuSans-78" d="M3513 3500 2247 1797 3578 0h-678L1881 1375 863 0H184l1360 1831L300 3500h678l928-1247 928 1247z" transform="scale(.01563)"/><path id="DejaVuSans-65" d="M3597 1894v-281H953q38-594 358-905t892-311q331 0 642 81t618 244V178Q3153 47 2828-22t-659-69q-838 0-1327 487-489 488-489 1320 0 859 464 1363 464 505 1252 505 706 0 1117-455 411-454 411-1235m-575 169q-6 471-264 752-258 282-683 282-481 0-770-272t-333-766z" transform="scale(.01563)"/><path id="DejaVuSans-63" d="M3122 3366v-538q-244 135-489 202t-495 67q-560 0-870-355-309-354-309-995t309-996q310-354 870-354 250 0 495 67t489 202V134Q2881 22 2623-34q-257-57-548-57-791 0-1257 497-465 497-465 1341 0 856 470 1346 471 491 1290 491 265 0 518-55 253-54 491-163" transform="scale(.01563)"/><path id="DejaVuSans-75" d="M544 1381v2119h575V1403q0-497 193-746 194-248 582-248 465 0 735 297 271 297 271 810v1984h575V0h-575v538q-209-319-486-474-276-155-642-155-603 0-916 375-312 375-312 1097m1447 2203" transform="scale(.01563)"/><path id="DejaVuSans-28" d="M1984 4856q-418-718-622-1422-203-703-203-1425 0-721 205-1429t620-1424h-500Q1016-109 783 600T550 2009q0 697 231 1403 232 707 703 1444z" transform="scale(.01563)"/><path id="DejaVuSans-3bc" d="M544-1331v4831h575V1325q0-453 215-685 216-231 638-231 462 0 695 262 233 263 233 788v2041h575V806q0-187 54-276 55-89 171-89 28 0 78 17t138 55V50q-128-72-243-106-114-35-223-35-216 0-344 122t-175 372q-156-247-383-371-226-123-532-123-319 0-543 122-223 122-354 366v-1728z" transform="scale(.01563)"/><path id="DejaVuSans-29" d="M513 4856h500q468-737 701-1444 233-706 233-1403 0-700-233-1409T1013-844H513q415 716 620 1424t205 1429q0 722-205 1425-205 704-620 1422" transform="scale(.01563)"/></defs><use xlink:href="#DejaVuSans-45"/><use xlink:href="#DejaVuSans-78" transform="translate(63.184)"/><use xlink:href="#DejaVuSans-65" transform="translate(119.238)"/><use xlink:href="#DejaVuSans-63" transform="translate(180.762)"/><use xlink:href="#DejaVuSans-75" transform="translate(235.742)"/><use xlink:href="#DejaVuSans-74" transform="translate(299.121)"/><use xlink:href="#DejaVuSans-69" transform="translate(338.33)"/><use xlink:href="#DejaVuSans-6f" transform="translate(366.113)"/><use xlink:href="#DejaVuSans-6e" transform="translate(427.295)"/><use xlink:href="#DejaVuSans-74" transform="translate(522.46)"/><use xlink:href="#DejaVuSans-69" transform="translate(561.67)"/><use xlink:href="#DejaVuSans-6d" transform="translate(589.453)"/><use xlink:href="#DejaVuSans-65" transform="translate(686.865)"/><use xlink:href="#DejaVuSans-28" transform="translate(780.176)"/><use xlink:href="#DejaVuSans-3bc" transform="translate(819.19)"/><use xlink:href="#DejaVuSans-73" transform="translate(882.813)"/><use xlink:href="#DejaVuSans-29" transform="translate(934.912)"/></g></g><path id="patch_9" d="M44.66 332.12V25.44" style="fill:none;stroke:#000;stroke-width:.8;stroke-linejoin:miter;stroke-linecap:square"/><path id="patch_10" d="M493.2 332.12V25.44" style="fill:none;stroke:#000;stroke-width:.8;stroke-linejoin:miter;stroke-linecap:square"/><path id="patch_11" d="M44.66 332.12H493.2" style="fill:none;stroke:#000;stroke-width:.8;stroke-linejoin:miter;stroke-linecap:square"/><path id="patch_12" d="M44.66 25.44H493.2" style="fill:none;stroke:#000;stroke-width:.8;stroke-linejoin:miter;stroke-linecap:square"/><g id="text_12" transform="matrix(.1 0 0 -.1 69.788 34.964)"><defs><path id="DejaVuSans-38" d="M2034 2216q-450 0-708-241-257-241-257-662 0-422 257-663 258-241 708-241t709 242q260 243 260 662 0 421-258 662-257 241-711 241m-631 268q-406 100-633 378-226 279-226 679 0 559 398 884 399 325 1092 325 697 0 1094-325t397-884q0-400-227-679-226-278-629-378 456-106 710-416 255-309 255-755 0-679-414-1042Q2806-91 2034-91q-771 0-1186 362-414 363-414 1042 0 446 256 755 257 310 713 416m-231 997q0-362 226-565 227-203 636-203 407 0 636 203 230 203 230 565 0 363-230 566-229 203-636 203-409 0-636-203-226-203-226-566" transform="scale(.01563)"/><path id="DejaVuSans-2e" d="M684 794h660V0H684z" transform="scale(.01563)"/></defs><use xlink:href="#DejaVuSans-35"/><use xlink:href="#DejaVuSans-38" transform="translate(63.623)"/><use xlink:href="#DejaVuSans-2e" transform="translate(127.246)"/><use xlink:href="#DejaVuSans-34" transform="translate(159.033)"/><use xlink:href="#DejaVuSans-36" transform="translate(222.656)"/><use xlink:href="#DejaVuSans-3bc" transform="translate(318.066)"/><use xlink:href="#DejaVuSans-73" transform="translate(381.69)"/></g><g id="text_13" transform="matrix(.1 0 0 -.1 220.812 169.86)"><use xlink:href="#DejaVuSans-33"/><use xlink:href="#DejaVuSans-31" transform="translate(63.623)"/><use xlink:href="#DejaVuSans-2e" transform="translate(127.246)"/><use xlink:href="#DejaVuSans-34" transform="translate(159.033)"/><use xlink:href="#DejaVuSans-36" transform="translate(222.656)"/><use xlink:href="#DejaVuSans-3bc" transform="translate(318.066)"/><use xlink:href="#DejaVuSans-73" transform="translate(381.69)"/></g><g id="text_14" transform="matrix(.1 0 0 -.1 371.835 181.702)"><defs><path id="DejaVuSans-39" d="M703 97v575q238-113 481-172 244-59 479-59 625 0 954 420 330 420 377 1277-181-269-460-413-278-144-615-144-700 0-1108 423-408 424-408 1159 0 718 425 1152 425 435 1131 435 810 0 1236-621 427-620 427-1801 0-1103-524-1761Q2575-91 1691-91q-238 0-482 47Q966 3 703 97m1256 1978q425 0 673 290 249 291 249 798 0 503-249 795-248 292-673 292t-673-292-248-795q0-507 248-798 248-290 673-290" transform="scale(.01563)"/></defs><use xlink:href="#DejaVuSans-32"/><use xlink:href="#DejaVuSans-39" transform="translate(63.623)"/><use xlink:href="#DejaVuSans-2e" transform="translate(127.246)"/><use xlink:href="#DejaVuSans-30" transform="translate(159.033)"/><use xlink:href="#DejaVuSans-39" transform="translate(222.656)"/><use xlink:href="#DejaVuSans-3bc" transform="translate(318.066)"/><use xlink:href="#DejaVuSans-73" transform="translate(381.69)"/></g><g id="text_15" transform="matrix(.1 0 0 -.1 122.646 223.47)"><defs><path id="DejaVuSans-37" d="M525 4666h3000v-269L1831 0h-659l1594 4134H525z" transform="scale(.01563)"/></defs><use xlink:href="#DejaVuSans-32"/><use xlink:href="#DejaVuSans-30" transform="translate(63.623)"/><use xlink:href="#DejaVuSans-2e" transform="translate(127.246)"/><use xlink:href="#DejaVuSans-37" transform="translate(159.033)"/><use xlink:href="#DejaVuSans-33" transform="translate(222.656)"/><use xlink:href="#DejaVuSans-3bc" transform="translate(318.066)"/><use xlink:href="#DejaVuSans-73" transform="translate(381.69)"/></g><g id="text_16" transform="matrix(.1 0 0 -.1 276.851 244.104)"><use xlink:href="#DejaVuSans-31"/><use xlink:href="#DejaVuSans-36" transform="translate(63.623)"/><use xlink:href="#DejaVuSans-2e" transform="translate(127.246)"/><use xlink:href="#DejaVuSans-36" transform="translate(159.033)"/><use xlink:href="#DejaVuSans-3bc" transform="translate(254.443)"/><use xlink:href="#DejaVuSans-73" transform="translate(318.066)"/></g><g id="text_17" transform="matrix(.1 0 0 -.1 424.694 245.203)"><use xlink:href="#DejaVuSans-31"/><use xlink:href="#DejaVuSans-36" transform="translate(63.623)"/><use xlink:href="#DejaVuSans-2e" transform="translate(127.246)"/><use xlink:href="#DejaVuSans-33" transform="translate(159.033)"/><use xlink:href="#DejaVuSans-38" transform="translate(222.656)"/><use xlink:href="#DejaVuSans-3bc" transform="translate(318.066)"/><use xlink:href="#DejaVuSans-73" transform="translate(381.69)"/></g><g id="text_18" transform="matrix(.12 0 0 -.12 225.988 19.44)"><defs><path id="DejaVuSans-76" d="M191 3500h609L1894 563l1094 2937h609L2284 0h-781z" transform="scale(.01563)"/><path id="DejaVuSans-53" d="M3425 4513v-616q-359 172-678 256-319 85-616 85-515 0-795-200t-280-569q0-310 186-468 186-157 705-254l381-78q706-135 1042-474t336-907q0-679-455-1029Q2797-91 1919-91q-331 0-705 75-373 75-773 222v650q384-215 753-325 369-109 725-109 540 0 834 212 294 213 294 607 0 343-211 537t-692 291l-385 75q-706 140-1022 440-315 300-315 835 0 619 436 975t1201 356q329 0 669-60 341-59 697-177" transform="scale(.01563)"/><path id="DejaVuSans-49" d="M628 4666h631V0H628z" transform="scale(.01563)"/><path id="DejaVuSans-4d" d="M628 4666h941l1190-3175 1197 3175h941V0h-616v4097L3078 897h-634L1241 4097V0H628z" transform="scale(.01563)"/><path id="DejaVuSans-44" d="M1259 4147V519h763q966 0 1414 437 448 438 448 1382 0 937-448 1373t-1414 436zm-631 519h1297q1356 0 1990-564 635-564 635-1764 0-1207-638-1773Q3275 0 1925 0H628z" transform="scale(.01563)"/></defs><use xlink:href="#DejaVuSans-4e"/><use xlink:href="#DejaVuSans-61" transform="translate(74.805)"/><use xlink:href="#DejaVuSans-69" transform="translate(136.084)"/><use xlink:href="#DejaVuSans-76" transform="translate(163.867)"/><use xlink:href="#DejaVuSans-65" transform="translate(223.047)"/><use xlink:href="#DejaVuSans-76" transform="translate(316.357)"/><use xlink:href="#DejaVuSans-73" transform="translate(375.537)"/><use xlink:href="#DejaVuSans-53" transform="translate(459.424)"/><use xlink:href="#DejaVuSans-49" transform="translate(522.9)"/><use xlink:href="#DejaVuSans-4d" transform="translate(552.393)"/><use xlink:href="#DejaVuSans-44" transform="translate(638.672)"/></g><g id="legend_1"><path id="patch_13" d="M425.74 62.796h60.46q2 0 2-2V32.44q0-2-2-2h-60.46q-2 0-2 2v28.356q0 2 2 2z" style="fill:#fff;opacity:.8;stroke:#ccc;stroke-linejoin:miter"/><path id="patch_14" d="M427.74 42.038h20v-7h-20z" style="fill:#1f77b4"/><g id="text_19" transform="matrix(.1 0 0 -.1 455.74 42.038)"><use xlink:href="#DejaVuSans-4e"/><use xlink:href="#DejaVuSans-61" transform="translate(74.805)"/><use xlink:href="#DejaVuSans-69" transform="translate(136.084)"/><use xlink:href="#DejaVuSans-76" transform="translate(163.867)"/><use xlink:href="#DejaVuSans-65" transform="translate(223.047)"/></g><path id="patch_15" d="M427.74 56.717h20v-7h-20z" style="fill:#ff7f0e"/><g id="text_20" transform="matrix(.1 0 0 -.1 455.74 56.717)"><use xlink:href="#DejaVuSans-53"/><use xlink:href="#DejaVuSans-49" transform="translate(63.477)"/><use xlink:href="#DejaVuSans-4d" transform="translate(92.969)"/><use xlink:href="#DejaVuSans-44" transform="translate(179.248)"/></g></g></g></g><defs><clipPath id="p9edba5812f"><path d="M44.66 25.44H493.2v306.68H44.66z"/></clipPath></defs></svg>