<?xml version="1.0" encoding="UTF-8"?>
<!DOCTYPE svg  PUBLIC '-//W3C//DTD SVG 1.1//EN'  'http://www.w3.org/Graphics/SVG/1.1/DTD/svg11.dtd'>
<svg width="504pt" height="360pt" version="1.1" viewBox="0 0 504 360" xmlns="http://www.w3.org/2000/svg" xmlns:xlink="http://www.w3.org/1999/xlink">
 <metadata>
  <rdf:RDF xmlns:cc="http://creativecommons.org/ns#" xmlns:dc="http://purl.org/dc/elements/1.1/" xmlns:rdf="http://www.w3.org/1999/02/22-rdf-syntax-ns#">
   <cc:Work>
    <dc:type rdf:resource="http://purl.org/dc/dcmitype/StillImage"/>
    <dc:date>2025-08-11T11:25:12.117346</dc:date>
    <dc:format>image/svg+xml</dc:format>
    <dc:creator>
     <cc:Agent>
      <dc:title>Matplotlib v3.10.3, https://matplotlib.org/</dc:title>
     </cc:Agent>
    </dc:creator>
   </cc:Work>
  </rdf:RDF>
 </metadata>
 <defs>
  <style type="text/css">*{stroke-linejoin: round; stroke-linecap: butt}</style>
 </defs>
 <g id="figure_1">
  <g id="patch_1">
   <path d="m0 360h504v-360h-504z" fill="#fff"/>
  </g>
  <g id="axes_1">
   <g id="patch_2">
    <path d="m44.66 332.12h448.54v-306.68h-448.54z" fill="#fff"/>
   </g>
   <g id="patch_3">
    <path d="m65.048 332.12h52.858v-292.08h-52.858z" clip-path="url(#p022a7c7dd0)" fill="#1f77b4"/>
   </g>
   <g id="patch_4">
    <path d="m216.07 332.12h52.858v-156.62h-52.858z" clip-path="url(#p022a7c7dd0)" fill="#1f77b4"/>
   </g>
   <g id="patch_5">
    <path d="m367.1 332.12h52.858v-135.46h-52.858z" clip-path="url(#p022a7c7dd0)" fill="#1f77b4"/>
   </g>
   <g id="patch_6">
    <path d="m117.91 332.12h52.858v-198.95h-52.858z" clip-path="url(#p022a7c7dd0)" fill="#ff7f0e"/>
   </g>
   <g id="patch_7">
    <path d="m268.93 332.12h52.858v-101.59h-52.858z" clip-path="url(#p022a7c7dd0)" fill="#ff7f0e"/>
   </g>
   <g id="patch_8">
    <path d="m419.95 332.12h52.858v-76.194h-52.858z" clip-path="url(#p022a7c7dd0)" fill="#ff7f0e"/>
   </g>
   <g id="matplotlib.axis_1">
    <g id="xtick_1">
     <g id="line2d_1">
      <defs>
       <path id="m421b343d5c" d="m0 0v3.5" stroke="#000" stroke-width=".8"/>
      </defs>
      <use x="117.906431" y="332.12" stroke="#000000" stroke-width=".8" xlink:href="#m421b343d5c"/>
     </g>
     <g id="text_1">
      <!-- No optimizations -->
      <g transform="translate(75.805 346.72) scale(.1 -.1)">
       <defs>
        <path id="DejaVuSans-4e" transform="scale(.015625)" d="m628 4666h850l2069-3903v3903h612v-4666h-850l-2068 3903v-3903h-613v4666z"/>
        <path id="DejaVuSans-6f" transform="scale(.015625)" d="m1959 3097q-462 0-731-361t-269-989 267-989q268-361 733-361 460 0 728 362 269 363 269 988 0 622-269 986-268 364-728 364zm0 487q750 0 1178-488 429-487 429-1349 0-859-429-1349-428-489-1178-489-753 0-1180 489-426 490-426 1349 0 862 426 1349 427 488 1180 488z"/>
        <path id="DejaVuSans-70" transform="scale(.015625)" d="m1159 525v-1856h-578v4831h578v-531q182 312 458 463 277 152 661 152 638 0 1036-506 399-506 399-1331t-399-1332q-398-506-1036-506-384 0-661 152-276 152-458 464zm1957 1222q0 634-261 995t-717 361q-457 0-718-361t-261-995 261-995 718-361q456 0 717 361t261 995z"/>
        <path id="DejaVuSans-74" transform="scale(.015625)" d="m1172 4494v-994h1184v-447h-1184v-1900q0-428 117-550t477-122h590v-481h-590q-666 0-919 248-253 249-253 905v1900h-422v447h422v994h578z"/>
        <path id="DejaVuSans-69" transform="scale(.015625)" d="m603 3500h575v-3500h-575v3500zm0 1363h575v-729h-575v729z"/>
        <path id="DejaVuSans-6d" transform="scale(.015625)" d="m3328 2828q216 388 516 572t706 184q547 0 844-383 297-382 297-1088v-2113h-578v2094q0 503-179 746-178 244-543 244-447 0-707-297-259-296-259-809v-1978h-578v2094q0 506-178 748t-550 242q-441 0-701-298-259-298-259-808v-1978h-578v3500h578v-544q197 322 472 475t653 153q382 0 649-194 267-193 395-562z"/>
        <path id="DejaVuSans-7a" transform="scale(.015625)" d="m353 3500h2731v-525l-2162-2516h2162v-459h-2809v525l2163 2516h-2085v459z"/>
        <path id="DejaVuSans-61" transform="scale(.015625)" d="m2194 1759q-697 0-966-159t-269-544q0-306 202-486 202-179 548-179 479 0 768 339t289 901v128h-572zm1147 238v-1997h-575v531q-197-318-491-470t-719-152q-537 0-855 302-317 302-317 808 0 590 395 890 396 300 1180 300h807v57q0 397-261 614t-733 217q-300 0-585-72-284-72-546-216v532q315 122 612 182 297 61 578 61 760 0 1135-394 375-393 375-1193z"/>
        <path id="DejaVuSans-6e" transform="scale(.015625)" d="m3513 2113v-2113h-575v2094q0 497-194 743-194 247-581 247-466 0-735-297-269-296-269-809v-1978h-578v3500h578v-544q207 316 486 472 280 156 646 156 603 0 912-373 310-373 310-1098z"/>
        <path id="DejaVuSans-73" transform="scale(.015625)" d="m2834 3397v-544q-243 125-506 187-262 63-544 63-428 0-642-131t-214-394q0-200 153-314t616-217l197-44q612-131 870-370t258-667q0-488-386-773-386-284-1061-284-281 0-586 55t-642 164v594q319-166 628-249 309-82 613-82 406 0 624 139 219 139 219 392 0 234-158 359-157 125-692 241l-200 47q-534 112-772 345-237 233-237 639 0 494 350 762 350 269 994 269 318 0 599-47 282-46 519-140z"/>
       </defs>
       <use xlink:href="#DejaVuSans-4e"/>
       <use transform="translate(74.805)" xlink:href="#DejaVuSans-6f"/>
       <use transform="translate(135.99)" xlink:href="#DejaVuSans-20"/>
       <use transform="translate(167.77)" xlink:href="#DejaVuSans-6f"/>
       <use transform="translate(228.96)" xlink:href="#DejaVuSans-70"/>
       <use transform="translate(292.43)" xlink:href="#DejaVuSans-74"/>
       <use transform="translate(331.64)" xlink:href="#DejaVuSans-69"/>
       <use transform="translate(359.42)" xlink:href="#DejaVuSans-6d"/>
       <use transform="translate(456.84)" xlink:href="#DejaVuSans-69"/>
       <use transform="translate(484.62)" xlink:href="#DejaVuSans-7a"/>
       <use transform="translate(537.11)" xlink:href="#DejaVuSans-61"/>
       <use transform="translate(598.39)" xlink:href="#DejaVuSans-74"/>
       <use transform="translate(637.6)" xlink:href="#DejaVuSans-69"/>
       <use transform="translate(665.38)" xlink:href="#DejaVuSans-6f"/>
       <use transform="translate(726.56)" xlink:href="#DejaVuSans-6e"/>
       <use transform="translate(789.94)" xlink:href="#DejaVuSans-73"/>
      </g>
     </g>
    </g>
    <g id="xtick_2">
     <g id="line2d_2">
      <use x="268.93" y="332.12" stroke="#000000" stroke-width=".8" xlink:href="#m421b343d5c"/>
     </g>
     <g id="text_2">
      <!-- Os -->
      <g transform="translate(262.39 346.72) scale(.1 -.1)">
       <defs>
        <path id="DejaVuSans-4f" transform="scale(.015625)" d="m2522 4238q-688 0-1093-513-404-512-404-1397 0-881 404-1394 405-512 1093-512 687 0 1089 512 402 513 402 1394 0 885-402 1397-402 513-1089 513zm0 512q981 0 1568-658 588-658 588-1764 0-1103-588-1761-587-658-1568-658-984 0-1574 656-589 657-589 1763t589 1764q590 658 1574 658z"/>
       </defs>
       <use xlink:href="#DejaVuSans-4f"/>
       <use transform="translate(78.711)" xlink:href="#DejaVuSans-73"/>
      </g>
     </g>
    </g>
    <g id="xtick_3">
     <g id="line2d_3">
      <use x="419.953569" y="332.12" stroke="#000000" stroke-width=".8" xlink:href="#m421b343d5c"/>
     </g>
     <g id="text_3">
      <!-- O2 -->
      <g transform="translate(412.84 346.72) scale(.1 -.1)">
       <defs>
        <path id="DejaVuSans-32" transform="scale(.015625)" d="m1228 531h2203v-531h-2962v531q359 372 979 998 621 627 780 809 303 340 423 576 121 236 121 464 0 372-261 606-261 235-680 235-297 0-627-103-329-103-704-313v638q381 153 712 231 332 78 607 78 725 0 1156-363 431-362 431-968 0-288-108-546-107-257-392-607-78-91-497-524-418-433-1181-1211z"/>
       </defs>
       <use xlink:href="#DejaVuSans-4f"/>
       <use transform="translate(78.711)" xlink:href="#DejaVuSans-32"/>
      </g>
     </g>
    </g>
   </g>
   <g id="matplotlib.axis_2">
    <g id="ytick_1">
     <g id="line2d_4">
      <defs>
       <path id="mb75a2601c7" d="m0 0h-3.5" stroke="#000" stroke-width=".8"/>
      </defs>
      <use x="44.66" y="332.12" stroke="#000000" stroke-width=".8" xlink:href="#mb75a2601c7"/>
     </g>
     <g id="text_4">
      <!-- 0 -->
      <g transform="translate(31.298 335.92) scale(.1 -.1)">
       <defs>
        <path id="DejaVuSans-30" transform="scale(.015625)" d="m2034 4250q-487 0-733-480-245-479-245-1442 0-959 245-1439 246-480 733-480 491 0 736 480 246 480 246 1439 0 963-246 1442-245 480-736 480zm0 500q785 0 1199-621 414-620 414-1801 0-1178-414-1799-414-620-1199-620-784 0-1198 620-414 621-414 1799 0 1181 414 1801 414 621 1198 621z"/>
       </defs>
       <use xlink:href="#DejaVuSans-30"/>
      </g>
     </g>
    </g>
    <g id="ytick_2">
     <g id="line2d_5">
      <use x="44.66" y="289.790117" stroke="#000000" stroke-width=".8" xlink:href="#mb75a2601c7"/>
     </g>
     <g id="text_5">
      <!-- 10 -->
      <g transform="translate(24.935 293.59) scale(.1 -.1)">
       <defs>
        <path id="DejaVuSans-31" transform="scale(.015625)" d="m794 531h1031v3560l-1122-225v575l1116 225h631v-4135h1031v-531h-2687v531z"/>
       </defs>
       <use xlink:href="#DejaVuSans-31"/>
       <use transform="translate(63.623)" xlink:href="#DejaVuSans-30"/>
      </g>
     </g>
    </g>
    <g id="ytick_3">
     <g id="line2d_6">
      <use x="44.66" y="247.460235" stroke="#000000" stroke-width=".8" xlink:href="#mb75a2601c7"/>
     </g>
     <g id="text_6">
      <!-- 20 -->
      <g transform="translate(24.935 251.26) scale(.1 -.1)">
       <use xlink:href="#DejaVuSans-32"/>
       <use transform="translate(63.623)" xlink:href="#DejaVuSans-30"/>
      </g>
     </g>
    </g>
    <g id="ytick_4">
     <g id="line2d_7">
      <use x="44.66" y="205.130352" stroke="#000000" stroke-width=".8" xlink:href="#mb75a2601c7"/>
     </g>
     <g id="text_7">
      <!-- 30 -->
      <g transform="translate(24.935 208.93) scale(.1 -.1)">
       <defs>
        <path id="DejaVuSans-33" transform="scale(.015625)" d="m2597 2516q453-97 707-404 255-306 255-756 0-690-475-1069-475-378-1350-378-293 0-604 58t-642 174v609q262-153 574-231 313-78 654-78 593 0 904 234t311 681q0 413-289 645-289 233-804 233h-544v519h569q465 0 712 186t247 536q0 359-255 551-254 193-729 193-260 0-557-57-297-56-653-174v562q360 100 674 150t592 50q719 0 1137-327 419-326 419-882 0-388-222-655t-631-370z"/>
       </defs>
       <use xlink:href="#DejaVuSans-33"/>
       <use transform="translate(63.623)" xlink:href="#DejaVuSans-30"/>
      </g>
     </g>
    </g>
    <g id="ytick_5">
     <g id="line2d_8">
      <use x="44.66" y="162.800469" stroke="#000000" stroke-width=".8" xlink:href="#mb75a2601c7"/>
     </g>
     <g id="text_8">
      <!-- 40 -->
      <g transform="translate(24.935 166.6) scale(.1 -.1)">
       <defs>
        <path id="DejaVuSans-34" transform="scale(.015625)" d="m2419 4116-1594-2491h1594v2491zm-166 550h794v-3041h666v-525h-666v-1100h-628v1100h-2106v609l1940 2957z"/>
       </defs>
       <use xlink:href="#DejaVuSans-34"/>
       <use transform="translate(63.623)" xlink:href="#DejaVuSans-30"/>
      </g>
     </g>
    </g>
    <g id="ytick_6">
     <g id="line2d_9">
      <use x="44.66" y="120.470587" stroke="#000000" stroke-width=".8" xlink:href="#mb75a2601c7"/>
     </g>
     <g id="text_9">
      <!-- 50 -->
      <g transform="translate(24.935 124.27) scale(.1 -.1)">
       <defs>
        <path id="DejaVuSans-35" transform="scale(.015625)" d="m691 4666h2478v-532h-1900v-1143q137 47 274 70 138 23 276 23 781 0 1237-428 457-428 457-1159 0-753-469-1171-469-417-1322-417-294 0-599 50-304 50-629 150v635q281-153 581-228t634-75q541 0 856 284 316 284 316 772 0 487-316 771-315 285-856 285-253 0-505-56-251-56-513-175v2344z"/>
       </defs>
       <use xlink:href="#DejaVuSans-35"/>
       <use transform="translate(63.623)" xlink:href="#DejaVuSans-30"/>
      </g>
     </g>
    </g>
    <g id="ytick_7">
     <g id="line2d_10">
      <use x="44.66" y="78.140704" stroke="#000000" stroke-width=".8" xlink:href="#mb75a2601c7"/>
     </g>
     <g id="text_10">
      <!-- 60 -->
      <g transform="translate(24.935 81.94) scale(.1 -.1)">
       <defs>
        <path id="DejaVuSans-36" transform="scale(.015625)" d="m2113 2584q-425 0-674-291-248-290-248-796 0-503 248-796 249-292 674-292t673 292q248 293 248 796 0 506-248 796-248 291-673 291zm1253 1979v-575q-238 112-480 171-242 60-480 60-625 0-955-422-329-422-376-1275 184 272 462 417 279 145 613 145 703 0 1111-427 408-426 408-1160 0-719-425-1154-425-434-1131-434-810 0-1238 620-428 621-428 1799 0 1106 525 1764t1409 658q238 0 480-47t505-140z"/>
       </defs>
       <use xlink:href="#DejaVuSans-36"/>
       <use transform="translate(63.623)" xlink:href="#DejaVuSans-30"/>
      </g>
     </g>
    </g>
    <g id="ytick_8">
     <g id="line2d_11">
      <use x="44.66" y="35.810821" stroke="#000000" stroke-width=".8" xlink:href="#mb75a2601c7"/>
     </g>
     <g id="text_11">
      <!-- 70 -->
      <g transform="translate(24.935 39.61) scale(.1 -.1)">
       <defs>
        <path id="DejaVuSans-37" transform="scale(.015625)" d="m525 4666h3e3v-269l-1694-4397h-659l1594 4134h-2241v532z"/>
       </defs>
       <use xlink:href="#DejaVuSans-37"/>
       <use transform="translate(63.623)" xlink:href="#DejaVuSans-30"/>
      </g>
     </g>
    </g>
    <g id="text_12">
     <!-- Execution time (μs) -->
     <g transform="translate(18.855 227.48) rotate(-90) scale(.1 -.1)">
      <defs>
       <path id="DejaVuSans-45" transform="scale(.015625)" d="m628 4666h2950v-532h-2319v-1381h2222v-531h-2222v-1691h2375v-531h-3006v4666z"/>
       <path id="DejaVuSans-78" transform="scale(.015625)" d="m3513 3500-1266-1703 1331-1797h-678l-1019 1375-1018-1375h-679l1360 1831-1244 1669h678l928-1247 928 1247h679z"/>
       <path id="DejaVuSans-65" transform="scale(.015625)" d="m3597 1894v-281h-2644q38-594 358-905t892-311q331 0 642 81t618 244v-544q-310-131-635-200t-659-69q-838 0-1327 487-489 488-489 1320 0 859 464 1363 464 505 1252 505 706 0 1117-455 411-454 411-1235zm-575 169q-6 471-264 752-258 282-683 282-481 0-770-272t-333-766l2050 4z"/>
       <path id="DejaVuSans-63" transform="scale(.015625)" d="m3122 3366v-538q-244 135-489 202t-495 67q-560 0-870-355-309-354-309-995t309-996q310-354 870-354 250 0 495 67t489 202v-532q-241-112-499-168-257-57-548-57-791 0-1257 497-465 497-465 1341 0 856 470 1346 471 491 1290 491 265 0 518-55 253-54 491-163z"/>
       <path id="DejaVuSans-75" transform="scale(.015625)" d="m544 1381v2119h575v-2097q0-497 193-746 194-248 582-248 465 0 735 297 271 297 271 810v1984h575v-3500h-575v538q-209-319-486-474-276-155-642-155-603 0-916 375-312 375-312 1097zm1447 2203z"/>
       <path id="DejaVuSans-28" transform="scale(.015625)" d="m1984 4856q-418-718-622-1422-203-703-203-1425 0-721 205-1429t620-1424h-500q-468 735-701 1444t-233 1409q0 697 231 1403 232 707 703 1444h500z"/>
       <path id="DejaVuSans-3bc" transform="scale(.015625)" d="m544-1331v4831h575v-2175q0-453 215-685 216-231 638-231 462 0 695 262 233 263 233 788v2041h575v-2694q0-187 54-276 55-89 171-89 28 0 78 17t138 55v-463q-128-72-243-106-114-35-223-35-216 0-344 122t-175 372q-156-247-383-371-226-123-532-123-319 0-543 122-223 122-354 366v-1728h-575z"/>
       <path id="DejaVuSans-29" transform="scale(.015625)" d="m513 4856h500q468-737 701-1444 233-706 233-1403 0-700-233-1409t-701-1444h-500q415 716 620 1424t205 1429q0 722-205 1425-205 704-620 1422z"/>
      </defs>
      <use xlink:href="#DejaVuSans-45"/>
      <use transform="translate(63.184)" xlink:href="#DejaVuSans-78"/>
      <use transform="translate(119.24)" xlink:href="#DejaVuSans-65"/>
      <use transform="translate(180.76)" xlink:href="#DejaVuSans-63"/>
      <use transform="translate(235.74)" xlink:href="#DejaVuSans-75"/>
      <use transform="translate(299.12)" xlink:href="#DejaVuSans-74"/>
      <use transform="translate(338.33)" xlink:href="#DejaVuSans-69"/>
      <use transform="translate(366.11)" xlink:href="#DejaVuSans-6f"/>
      <use transform="translate(427.29)" xlink:href="#DejaVuSans-6e"/>
      <use transform="translate(490.67)" xlink:href="#DejaVuSans-20"/>
      <use transform="translate(522.46)" xlink:href="#DejaVuSans-74"/>
      <use transform="translate(561.67)" xlink:href="#DejaVuSans-69"/>
      <use transform="translate(589.45)" xlink:href="#DejaVuSans-6d"/>
      <use transform="translate(686.87)" xlink:href="#DejaVuSans-65"/>
      <use transform="translate(748.39)" xlink:href="#DejaVuSans-20"/>
      <use transform="translate(780.18)" xlink:href="#DejaVuSans-28"/>
      <use transform="translate(819.19)" xlink:href="#DejaVuSans-3bc"/>
      <use transform="translate(882.81)" xlink:href="#DejaVuSans-73"/>
      <use transform="translate(934.91)" xlink:href="#DejaVuSans-29"/>
     </g>
    </g>
   </g>
   <g id="patch_9">
    <path d="m44.66 332.12v-306.68" fill="none" stroke="#000" stroke-linecap="square" stroke-width=".8"/>
   </g>
   <g id="patch_10">
    <path d="m493.2 332.12v-306.68" fill="none" stroke="#000" stroke-linecap="square" stroke-width=".8"/>
   </g>
   <g id="patch_11">
    <path d="m44.66 332.12h448.54" fill="none" stroke="#000" stroke-linecap="square" stroke-width=".8"/>
   </g>
   <g id="patch_12">
    <path d="m44.66 25.44h448.54" fill="none" stroke="#000" stroke-linecap="square" stroke-width=".8"/>
   </g>
   <g id="text_13">
    <!-- 69 μs -->
    <g transform="translate(77.74 34.964) scale(.1 -.1)">
     <defs>
      <path id="DejaVuSans-39" transform="scale(.015625)" d="m703 97v575q238-113 481-172 244-59 479-59 625 0 954 420 330 420 377 1277-181-269-460-413-278-144-615-144-700 0-1108 423-408 424-408 1159 0 718 425 1152 425 435 1131 435 810 0 1236-621 427-620 427-1801 0-1103-524-1761-523-658-1407-658-238 0-482 47-243 47-506 141zm1256 1978q425 0 673 290 249 291 249 798 0 503-249 795-248 292-673 292t-673-292-248-795q0-507 248-798 248-290 673-290z"/>
     </defs>
     <use xlink:href="#DejaVuSans-36"/>
     <use transform="translate(63.623)" xlink:href="#DejaVuSans-39"/>
     <use transform="translate(127.25)" xlink:href="#DejaVuSans-20"/>
     <use transform="translate(159.03)" xlink:href="#DejaVuSans-3bc"/>
     <use transform="translate(222.66)" xlink:href="#DejaVuSans-73"/>
    </g>
   </g>
   <g id="text_14">
    <!-- 37 μs -->
    <g transform="translate(228.76 170.42) scale(.1 -.1)">
     <use xlink:href="#DejaVuSans-33"/>
     <use transform="translate(63.623)" xlink:href="#DejaVuSans-37"/>
     <use transform="translate(127.25)" xlink:href="#DejaVuSans-20"/>
     <use transform="translate(159.03)" xlink:href="#DejaVuSans-3bc"/>
     <use transform="translate(222.66)" xlink:href="#DejaVuSans-73"/>
    </g>
   </g>
   <g id="text_15">
    <!-- 32 μs -->
    <g transform="translate(379.79 191.58) scale(.1 -.1)">
     <use xlink:href="#DejaVuSans-33"/>
     <use transform="translate(63.623)" xlink:href="#DejaVuSans-32"/>
     <use transform="translate(127.25)" xlink:href="#DejaVuSans-20"/>
     <use transform="translate(159.03)" xlink:href="#DejaVuSans-3bc"/>
     <use transform="translate(222.66)" xlink:href="#DejaVuSans-73"/>
    </g>
   </g>
   <g id="text_16">
    <!-- 47 μs -->
    <g transform="translate(130.6 128.09) scale(.1 -.1)">
     <use xlink:href="#DejaVuSans-34"/>
     <use transform="translate(63.623)" xlink:href="#DejaVuSans-37"/>
     <use transform="translate(127.25)" xlink:href="#DejaVuSans-20"/>
     <use transform="translate(159.03)" xlink:href="#DejaVuSans-3bc"/>
     <use transform="translate(222.66)" xlink:href="#DejaVuSans-73"/>
    </g>
   </g>
   <g id="text_17">
    <!-- 24 μs -->
    <g transform="translate(281.62 225.45) scale(.1 -.1)">
     <use xlink:href="#DejaVuSans-32"/>
     <use transform="translate(63.623)" xlink:href="#DejaVuSans-34"/>
     <use transform="translate(127.25)" xlink:href="#DejaVuSans-20"/>
     <use transform="translate(159.03)" xlink:href="#DejaVuSans-3bc"/>
     <use transform="translate(222.66)" xlink:href="#DejaVuSans-73"/>
    </g>
   </g>
   <g id="text_18">
    <!-- 18 μs -->
    <g transform="translate(432.65 250.85) scale(.1 -.1)">
     <defs>
      <path id="DejaVuSans-38" transform="scale(.015625)" d="m2034 2216q-450 0-708-241-257-241-257-662 0-422 257-663 258-241 708-241t709 242q260 243 260 662 0 421-258 662-257 241-711 241zm-631 268q-406 100-633 378-226 279-226 679 0 559 398 884 399 325 1092 325 697 0 1094-325t397-884q0-400-227-679-226-278-629-378 456-106 710-416 255-309 255-755 0-679-414-1042-414-362-1186-362-771 0-1186 362-414 363-414 1042 0 446 256 755 257 310 713 416zm-231 997q0-362 226-565 227-203 636-203 407 0 636 203 230 203 230 565 0 363-230 566-229 203-636 203-409 0-636-203-226-203-226-566z"/>
     </defs>
     <use xlink:href="#DejaVuSans-31"/>
     <use transform="translate(63.623)" xlink:href="#DejaVuSans-38"/>
     <use transform="translate(127.25)" xlink:href="#DejaVuSans-20"/>
     <use transform="translate(159.03)" xlink:href="#DejaVuSans-3bc"/>
     <use transform="translate(222.66)" xlink:href="#DejaVuSans-73"/>
    </g>
   </g>
   <g id="text_19">
    <!-- Naive vs SIMD -->
    <g transform="translate(225.99 19.44) scale(.12 -.12)">
     <defs>
      <path id="DejaVuSans-76" transform="scale(.015625)" d="m191 3500h609l1094-2937 1094 2937h609l-1313-3500h-781l-1312 3500z"/>
      <path id="DejaVuSans-53" transform="scale(.015625)" d="m3425 4513v-616q-359 172-678 256-319 85-616 85-515 0-795-200t-280-569q0-310 186-468 186-157 705-254l381-78q706-135 1042-474t336-907q0-679-455-1029-454-350-1332-350-331 0-705 75-373 75-773 222v650q384-215 753-325 369-109 725-109 540 0 834 212 294 213 294 607 0 343-211 537t-692 291l-385 75q-706 140-1022 440-315 300-315 835 0 619 436 975t1201 356q329 0 669-60 341-59 697-177z"/>
      <path id="DejaVuSans-49" transform="scale(.015625)" d="m628 4666h631v-4666h-631v4666z"/>
      <path id="DejaVuSans-4d" transform="scale(.015625)" d="m628 4666h941l1190-3175 1197 3175h941v-4666h-616v4097l-1203-3200h-634l-1203 3200v-4097h-613v4666z"/>
      <path id="DejaVuSans-44" transform="scale(.015625)" d="m1259 4147v-3628h763q966 0 1414 437 448 438 448 1382 0 937-448 1373t-1414 436h-763zm-631 519h1297q1356 0 1990-564 635-564 635-1764 0-1207-638-1773-637-565-1987-565h-1297v4666z"/>
     </defs>
     <use xlink:href="#DejaVuSans-4e"/>
     <use transform="translate(74.805)" xlink:href="#DejaVuSans-61"/>
     <use transform="translate(136.08)" xlink:href="#DejaVuSans-69"/>
     <use transform="translate(163.87)" xlink:href="#DejaVuSans-76"/>
     <use transform="translate(223.05)" xlink:href="#DejaVuSans-65"/>
     <use transform="translate(284.57)" xlink:href="#DejaVuSans-20"/>
     <use transform="translate(316.36)" xlink:href="#DejaVuSans-76"/>
     <use transform="translate(375.54)" xlink:href="#DejaVuSans-73"/>
     <use transform="translate(427.64)" xlink:href="#DejaVuSans-20"/>
     <use transform="translate(459.42)" xlink:href="#DejaVuSans-53"/>
     <use transform="translate(522.9)" xlink:href="#DejaVuSans-49"/>
     <use transform="translate(552.39)" xlink:href="#DejaVuSans-4d"/>
     <use transform="translate(638.67)" xlink:href="#DejaVuSans-44"/>
    </g>
   </g>
   <g id="legend_1">
    <g id="patch_13">
     <path d="m425.74 62.796h60.459q2 0 2-2v-28.356q0-2-2-2h-60.459q-2 0-2 2v28.356q0 2 2 2z" fill="#fff" opacity=".8" stroke="#ccc"/>
    </g>
    <g id="patch_14">
     <path d="m427.74 42.038h20v-7h-20z" fill="#1f77b4"/>
    </g>
    <g id="text_20">
     <!-- Naive -->
     <g transform="translate(455.74 42.038) scale(.1 -.1)">
      <use xlink:href="#DejaVuSans-4e"/>
      <use transform="translate(74.805)" xlink:href="#DejaVuSans-61"/>
      <use transform="translate(136.08)" xlink:href="#DejaVuSans-69"/>
      <use transform="translate(163.87)" xlink:href="#DejaVuSans-76"/>
      <use transform="translate(223.05)" xlink:href="#DejaVuSans-65"/>
     </g>
    </g>
    <g id="patch_15">
     <path d="m427.74 56.717h20v-7h-20z" fill="#ff7f0e"/>
    </g>
    <g id="text_21">
     <!-- SIMD -->
     <g transform="translate(455.74 56.717) scale(.1 -.1)">
      <use xlink:href="#DejaVuSans-53"/>
      <use transform="translate(63.477)" xlink:href="#DejaVuSans-49"/>
      <use transform="translate(92.969)" xlink:href="#DejaVuSans-4d"/>
      <use transform="translate(179.25)" xlink:href="#DejaVuSans-44"/>
     </g>
    </g>
   </g>
  </g>
 </g>
 <defs>
  <clipPath id="p022a7c7dd0">
   <rect x="44.66" y="25.44" width="448.54" height="306.68"/>
  </clipPath>
 </defs>
</svg>